<svg width="24px" height="24px" viewBox="1.75 -1 20 20" version="1.1" xmlns="http://www.w3.org/2000/svg" xmlns:xlink="http://www.w3.org/1999/xlink">
   <path d="M16.56,8.94 L8.32,0.7 C7.93,0.31 7.3,0.31 6.91,0.7 C6.52,1.09 6.52,1.72 6.91,2.11 L8.59,3.79 L3.44,8.94 C2.85,9.53 2.85,10.48 3.44,11.06 L8.94,16.56 C9.23,16.85 9.62,17 10,17 C10.38,17 10.77,16.85 11.06,16.56 L16.56,11.06 C17.15,10.48 17.15,9.53 16.56,8.94 Z M5.21,10 L10,5.21 L14.79,10 L5.21,10 Z M19,11.5 C19,11.5 17,13.67 17,15 C17,16.1 17.9,17 19,17 C20.1,17 21,16.1 21,15 C21,13.67 19,11.5 19,11.5 Z" ></path>
</svg>