<svg version="1.1" id="Layer_1" xmlns="http://www.w3.org/2000/svg" xmlns:xlink="http://www.w3.org/1999/xlink" x="0px" y="0px"
	 viewBox="0 0 100 100" style="enable-background:new 0 0 100 100;" xml:space="preserve">
<path d="M 20 48 V 51 H 80 V 48 Z M 5 38 C 5 44 5 44 10 44 H 90 C 95 44 95 44 95 38 V 15 C 95 10 95 10 90 10 H 10 C 5 10 5 10 5 15 Z M 15 39 C 10 39 10 39 10 33 V 20 C 10 15 10 15 15 15 H 85 C 90 15 90 15 90 20 V 33 C 90 39 90 39 85 39 Z M 5 85 V 60 C 5 55 5 55 10 55 H 90 C 95 55 95 55 95 60 V 85 C 95 90 95 90 90 90 H 10 C 5 90 5 90 5 85 Z M 10 80 C 10 85 10 85 15 85 H 85 C 90 85 90 85 90 80 V 65 C 90 60 90 60 85 60 H 15 C 10 60 10 60 10 65 Z"/>
</svg>
