<?xml version="1.0" encoding="UTF-8" standalone="no"?> <svg width="64" height="64" viewBox="0 0 64 64" fill="none" xmlns="http://www.w3.org/2000/svg">
<path d="M60 55.6998H33.76L59.05 30.4098C60.0442 29.4029 60.6017 28.0448 60.6017 26.6298C60.6017 25.2148 60.0442 23.8567 59.05 22.8498L43.44 7.24978C42.4357 6.25075 41.0766 5.68994 39.66 5.68994C38.2434 5.68994 36.8844 6.25075 35.88 7.24978L5.00003 38.1898C4.00099 39.1941 3.44019 40.5532 3.44019 41.9698C3.44019 43.3864 4.00099 44.7454 5.00003 45.7498L18.24 58.9998C18.4284 59.2113 18.6595 59.3804 18.9181 59.4959C19.1766 59.6114 19.4568 59.6707 19.74 59.6698H60C60.4845 59.6101 60.9303 59.3754 61.2537 59.0097C61.5771 58.6441 61.7555 58.1729 61.7555 57.6848C61.7555 57.1967 61.5771 56.7254 61.2537 56.3598C60.9303 55.9942 60.4845 55.7594 60 55.6998ZM38.71 10.0798C38.9645 9.82879 39.3076 9.68807 39.665 9.68807C40.0225 9.68807 40.3655 9.82879 40.62 10.0798L56.22 25.6798C56.4704 25.9326 56.6109 26.274 56.6109 26.6298C56.6109 26.9856 56.4704 27.327 56.22 27.5798L48.78 34.9998L31.28 17.5098L38.71 10.0798Z" fill="black"/>
</svg>
