<svg version="1.1" id="Layer_1" xmlns="http://www.w3.org/2000/svg" xmlns:xlink="http://www.w3.org/1999/xlink" x="0px" y="0px"
     viewBox="0 0 100 100" style="enable-background:new 0 0 100 100;" xml:space="preserve">
<path d="M 5 34.5 V 47.5 H 10 V 34.5 Z M 5 55.5 V 68.01 H 10 V 55.5 Z M 5 76.92 V 88.8 H 17 V 83.85 H 10 V 76.92 Z M 29 83.85 V 88.8 H 44 V 83.85 Z M 57 83.85 V 88.8 H 72 V 83.85 Z M 83 83.85 V 88.8 H 95 V 76.5 H 90 V 83.85 Z M 90 68.5 H 95 V 55.5 H 90 Z M 90 47.5 H 95 V 34.5 H 90 Z M 90 26.5 H 95 V 11.5 H 83 V 16.5 H 90 Z M 72 16.5 V 11.5 H 57 V 16.5 Z M 44 16.5 V 11.5 H 28 V 16.5 Z M 17 16.5 V 11.5 H 5 V 26.5 H 10 V 16.5 Z"/>
</svg>
